<svg width="62" height="97" viewBox="0 0 62 97" fill="none" xmlns="http://www.w3.org/2000/svg">
<path d="M44.3901 19.79C44.8401 19.22 45.0001 18.2 45.0001 18.2H17.5901C17.5901 18.2 17.9301 19.33 18.2101 19.79H44.3901Z" fill="#A38138"/>
<path d="M42.7902 22.12C43.3002 21.67 43.8202 20.76 43.8202 20.76H18.7202C18.7202 20.76 19.0002 21.44 19.6302 22.12H42.7902Z" fill="#A38138"/>
<path d="M40.81 24.22C41.43 23.88 41.94 23.2 41.94 23.2H20.48C20.48 23.2 20.99 23.77 21.5 24.22H40.81Z" fill="#A38138"/>
<path d="M38.3101 26.21C38.9301 25.98 39.6201 25.41 39.6201 25.41H22.8701C22.8701 25.41 22.8701 25.53 24.0601 26.21H38.3101Z" fill="#A38138"/>
<path d="M25.99 27.45C25.99 27.45 27.75 28.48 31.22 28.48C34.69 28.48 36.89 27.45 36.89 27.45H25.99Z" fill="#A38138"/>
<path d="M25.7001 29.78C25.7001 29.78 27.8001 29.89 29.0401 30.86C30.2401 31.89 31.1501 33.59 31.1501 33.59C31.1501 33.59 31.8901 31.95 33.0901 31.1C34.2801 30.18 36.2101 29.79 36.2101 29.79H57.8401L62.1001 36.09H42.6801C42.6801 36.09 41.3201 36.15 39.2801 37.35C38.2001 37.97 37.4001 39.05 37.4001 39.05C37.4001 39.05 37.2401 39.56 37.0101 39.84C36.7801 40.13 36.6101 40.36 36.3301 40.47C36.0401 40.59 36.1001 40.53 36.1001 40.53H25.9901C25.9901 40.53 25.5801 40.37 25.3701 40.02C25.1401 39.68 25.3101 39.8 25.0901 39.52C24.9201 39.24 24.5201 38.49 22.9901 37.47C21.4001 36.44 19.8701 36.33 19.8701 36.33H0.100098L4.4001 29.8H25.7001V29.78Z" fill="#0B396D"/>
<path d="M10.4202 38.7V70.95C10.4202 70.95 10.5302 73.8 12.9202 77.65C15.3002 81.51 18.7602 83.27 18.7602 83.27L21.4902 79.01C21.4902 79.01 19.1102 77.58 17.2902 74.86C15.5402 72.14 15.5402 69.81 15.5402 69.81V38.7H10.4202Z" fill="#0B396D"/>
<path d="M46.9902 38.58V69.69C46.9902 69.69 46.5902 72.82 45.1202 75.03C43.6402 77.3 41.2002 79.12 41.2002 79.12L43.8202 83.32C43.8202 83.32 47.7902 80.43 49.7202 77.36C51.6602 74.3 52.1202 69.69 52.1202 69.69V38.58H46.9902Z" fill="#0B396D"/>
<path d="M2.32007 38.7V71.07C2.32007 71.07 2.66007 76.07 5.77007 81.29C8.90007 86.51 14.5701 90.14 14.5701 90.14L17.2401 85.89C17.2401 85.89 13.6001 83.96 10.7101 79.52C7.75007 75.04 7.59007 70.95 7.59007 70.95V38.7H2.32007Z" fill="#0B396D"/>
<path d="M25.7002 42.1V76.28C25.7002 76.28 25.5702 76.4 25.5302 76.9C25.4702 77.42 25.1302 77.76 25.1302 77.76L13.7202 96.66H48.7002L37.2902 77.36L36.9502 76.5L36.8302 75.6V42.16H32.5702V76.86C32.5702 76.86 32.5702 77.36 32.7402 77.76C32.8502 78.16 33.0802 78.78 33.0802 78.78L40.1102 90.36H22.3002L29.2202 78.84C29.2202 78.84 29.4502 78.44 29.6202 77.88C29.7402 77.37 29.7902 76.87 29.7902 76.87V42.1H25.7002Z" fill="#A38138"/>
<path d="M54.8901 38.58V70.38C54.8901 70.38 54.8401 74.47 51.8301 79.18C48.8201 83.9 45.3601 85.88 45.3601 85.88L47.9201 90.19C47.9201 90.19 53.1401 86.9 56.4401 81.67C59.6801 76.44 60.0701 70.37 60.0701 70.37V38.57H54.8901V38.58Z" fill="#0B396D"/>
<path d="M17.4101 17.29C17.4101 17.29 15.6601 7.7 22.6901 2.92C22.6901 2.92 25.8701 -0.0299988 31.0301 -0.0299988C36.5501 -0.0299988 39.7201 2.86 39.7201 2.86C47.3901 8.48 45.1201 17.28 45.1201 17.28H17.4101V17.29Z" fill="#A38138"/>
</svg>
